<svg width="715" height="198" viewBox="0 0 715 198" fill="none" xmlns="http://www.w3.org/2000/svg">
<path opacity="0.57" fill-rule="evenodd" clip-rule="evenodd" d="M142.799 36.4828C159.425 45.7113 162.831 62.0856 176.516 73.7863C192.918 87.8103 222.601 94.3294 229.959 111.007C237.387 127.842 224.4 142.582 211.981 154.171C199.856 165.484 182.952 174.498 161.517 174.871C141.323 175.223 125.596 152.004 105.065 145.59C83.1704 138.749 51.0623 151.192 37.355 136.08C23.5374 120.846 42.1419 105.64 40.7315 89.1745C39.3664 73.2387 21.5981 55.2561 29.287 41.8919C37.2794 28.0001 58.7105 21.4149 80.3081 20.3858C100.847 19.4071 123.771 25.9217 142.799 36.4828Z" fill="url(#paint0_linear_260_4)"/>
<path d="M646.724 95.3716C646.02 95.8196 645.268 96.2516 644.468 96.6676C643.7 97.0836 642.868 97.5156 641.972 97.9636C641.236 98.3476 640.324 98.7956 639.236 99.3076C638.18 99.8196 637.028 100.396 635.78 101.036C634.564 101.644 633.332 102.3 632.084 103.004C630.836 103.676 629.668 104.364 628.58 105.068C626.596 106.38 624.98 107.74 623.732 109.148C622.516 110.556 621.908 112.108 621.908 113.804C621.908 115.5 622.74 116.812 624.404 117.74C626.068 118.636 628.564 119.084 631.892 119.084C633.556 119.084 635.316 119.02 637.172 118.892C639.06 118.732 640.916 118.524 642.74 118.268C644.564 117.98 646.18 117.66 647.588 117.308L647.492 124.22C646.148 124.444 644.676 124.652 643.076 124.844C641.508 125.036 639.796 125.18 637.94 125.276C636.116 125.372 634.164 125.42 632.084 125.42C629.684 125.42 627.46 125.228 625.412 124.844C623.396 124.492 621.62 123.9 620.084 123.068C618.58 122.236 617.396 121.116 616.532 119.708C615.7 118.3 615.284 116.572 615.284 114.524C615.284 112.476 615.732 110.62 616.628 108.956C617.524 107.292 618.74 105.756 620.276 104.348C621.844 102.94 623.556 101.612 625.412 100.364C626.564 99.5956 627.78 98.8596 629.06 98.1556C630.34 97.4196 631.588 96.7156 632.804 96.0436C634.052 95.3716 635.204 94.7636 636.26 94.2196C637.348 93.6436 638.244 93.1476 638.948 92.7316C639.876 92.1876 640.692 91.6916 641.396 91.2436C642.1 90.7956 642.772 90.3156 643.412 89.8036L646.724 95.3716ZM622.58 85.0996C623.38 87.2116 624.212 89.2436 625.076 91.1956C625.972 93.1476 626.852 94.9716 627.716 96.6676C628.612 98.3636 629.428 99.8836 630.164 101.228L624.74 104.444C623.876 102.972 622.98 101.324 622.052 99.4996C621.124 97.6756 620.196 95.7556 619.268 93.7396C618.34 91.6916 617.444 89.6276 616.58 87.5476L622.58 85.0996ZM673.508 93.8836C674.884 94.0116 676.26 94.1236 677.636 94.2196C679.044 94.2836 680.468 94.3156 681.908 94.3156C684.852 94.3156 687.78 94.1876 690.692 93.9316C693.604 93.6756 696.292 93.2756 698.756 92.7316V98.7316C696.26 99.0836 693.556 99.3716 690.644 99.5956C687.732 99.7876 684.82 99.8836 681.908 99.8836C680.5 99.8836 679.092 99.8676 677.684 99.8356C676.308 99.7716 674.916 99.6916 673.508 99.5956V93.8836ZM691.748 85.7716C691.684 86.2196 691.62 86.7156 691.556 87.2596C691.524 87.8036 691.492 88.3476 691.46 88.8916C691.428 89.4036 691.396 90.0916 691.364 90.9556C691.332 91.8196 691.316 92.7956 691.316 93.8836C691.316 94.9396 691.316 96.0596 691.316 97.2436C691.316 99.4196 691.348 101.468 691.412 103.388C691.476 105.276 691.556 107.036 691.652 108.668C691.748 110.268 691.828 111.74 691.892 113.084C691.988 114.428 692.036 115.676 692.036 116.828C692.036 118.076 691.86 119.228 691.508 120.284C691.188 121.34 690.66 122.268 689.924 123.068C689.188 123.868 688.212 124.476 686.996 124.892C685.812 125.34 684.356 125.564 682.628 125.564C679.3 125.564 676.676 124.892 674.756 123.548C672.836 122.204 671.876 120.268 671.876 117.74C671.876 116.108 672.308 114.684 673.172 113.468C674.036 112.22 675.268 111.26 676.868 110.588C678.468 109.884 680.356 109.532 682.532 109.532C684.804 109.532 686.868 109.772 688.724 110.252C690.58 110.732 692.276 111.372 693.812 112.172C695.348 112.972 696.708 113.852 697.892 114.812C699.108 115.74 700.196 116.636 701.156 117.5L697.844 122.54C696.02 120.812 694.244 119.324 692.516 118.076C690.788 116.828 689.06 115.868 687.332 115.196C685.636 114.524 683.876 114.188 682.052 114.188C680.708 114.188 679.604 114.444 678.74 114.956C677.908 115.468 677.492 116.188 677.492 117.116C677.492 118.076 677.924 118.78 678.788 119.228C679.652 119.676 680.708 119.9 681.956 119.9C682.948 119.9 683.732 119.74 684.308 119.42C684.884 119.068 685.284 118.572 685.508 117.932C685.764 117.26 685.892 116.46 685.892 115.532C685.892 114.7 685.86 113.612 685.796 112.268C685.732 110.924 685.652 109.42 685.556 107.756C685.492 106.092 685.428 104.364 685.364 102.572C685.3 100.748 685.268 98.9716 685.268 97.2436C685.268 95.4196 685.252 93.7716 685.22 92.2996C685.22 90.7956 685.22 89.6756 685.22 88.9396C685.22 88.5876 685.188 88.0916 685.124 87.4516C685.06 86.8116 684.98 86.2516 684.884 85.7716H691.748ZM668.324 86.2996C668.228 86.6196 668.084 87.0676 667.892 87.6436C667.732 88.2196 667.588 88.7796 667.46 89.3236C667.364 89.8676 667.284 90.2836 667.22 90.5716C667.06 91.2436 666.884 92.1556 666.692 93.3076C666.5 94.4276 666.292 95.7076 666.068 97.1476C665.876 98.5556 665.684 100.012 665.492 101.516C665.3 102.988 665.156 104.396 665.06 105.74C664.964 107.052 664.916 108.188 664.916 109.148C664.916 109.628 664.916 110.156 664.916 110.732C664.948 111.276 665.012 111.788 665.108 112.268C665.332 111.692 665.556 111.132 665.78 110.588C666.036 110.044 666.292 109.5 666.548 108.956C666.804 108.412 667.044 107.868 667.268 107.324L670.196 109.724C669.748 111.036 669.284 112.412 668.804 113.852C668.356 115.292 667.94 116.652 667.556 117.932C667.204 119.212 666.932 120.284 666.74 121.148C666.676 121.468 666.612 121.852 666.548 122.3C666.516 122.748 666.5 123.116 666.5 123.404C666.5 123.66 666.5 123.964 666.5 124.316C666.532 124.7 666.564 125.052 666.596 125.372L661.172 125.804C660.66 124.108 660.212 121.948 659.828 119.324C659.444 116.668 659.252 113.708 659.252 110.444C659.252 108.652 659.332 106.78 659.492 104.828C659.652 102.844 659.828 100.94 660.02 99.1156C660.244 97.2916 660.468 95.6276 660.692 94.1236C660.916 92.5876 661.092 91.3556 661.22 90.4276C661.316 89.7556 661.412 89.0036 661.508 88.1716C661.604 87.3076 661.668 86.4916 661.7 85.7236L668.324 86.2996Z" fill="black"/>
<g clip-path="url(#clip0_260_4)">
<path d="M430.578 86.1192C428.167 86.342 425.903 86.558 423.636 86.7634C422.893 86.8296 422.145 86.8957 421.398 86.9271C417.975 87.0664 415.366 85.1128 414.428 81.822C414.065 80.5405 414.812 79.9763 415.785 79.7151C418.666 78.9421 421.546 77.9531 424.486 77.6536C429.2 77.173 433.963 77.1487 438.708 77.0094C439.653 76.9815 440.612 77.2845 441.553 77.483C442.917 77.772 443.474 78.6983 443.234 79.9868C443.023 81.129 442.684 82.2642 442.276 83.3542C440.65 87.6688 438.976 91.966 437.326 96.2702C437.202 96.5906 437.132 96.9284 437.047 97.2348C441.14 97.8338 445.17 98.4258 449.337 99.0387C449.496 97.5796 449.619 96.0369 449.845 94.5047C450.264 91.6526 451.452 90.5835 454.019 90.6427C455.69 90.681 456.628 91.2939 456.903 92.9306C457.357 95.6295 457.696 98.3492 457.929 101.076C458.017 102.114 458.39 102.573 459.342 102.925C461.193 103.611 463.037 104.349 464.789 105.251C468.967 107.4 469.351 113.017 465.586 115.813C464.743 116.436 463.869 116.464 462.98 116.026C461.45 115.263 459.942 114.459 458.429 113.658C457.78 113.316 457.149 112.94 456.659 112.665C455.306 115.709 454.11 118.738 452.64 121.629C450.807 125.233 448.114 127.977 443.834 128.6C441.109 128.997 438.464 128.628 436.078 127.176C434.657 126.312 434.643 125.689 435.838 124.557C437.897 122.604 440.284 120.873 441.902 118.613C443.911 115.806 445.286 112.557 446.929 109.496C447.437 108.545 447.042 107.936 446.069 107.8C442.769 107.341 439.469 106.846 436.152 106.568C433.885 106.379 433.871 106.533 433.011 108.64C431.103 113.316 429.168 117.983 426.284 122.189C424.648 124.575 422.646 126.594 419.878 127.636C414.717 129.579 409.753 127.751 406.852 122.948C401.772 114.542 405.738 103.865 415.479 100.369C418.666 99.2267 422.135 98.8297 425.498 98.2029C426.464 98.0218 427.102 97.7885 427.409 96.7752C428.368 93.6132 429.404 90.4721 430.398 87.3206C430.497 87.0072 430.501 86.6659 430.578 86.1192ZM423.619 107.386C423.492 107.25 423.365 107.118 423.238 106.982C420.767 106.752 418.475 107.438 416.409 108.72C413.54 110.499 412.598 113.703 413.86 116.809C414.252 117.777 414.802 118.589 415.944 118.77C417.125 118.958 417.936 118.313 418.422 117.405C420.199 114.086 421.895 110.729 423.619 107.386Z" fill="black"/>
<path d="M577.121 90.2318C574.554 86.4256 572.301 82.5811 568.67 79.8126C567.26 78.7366 567.066 78.3709 567.722 76.7412C568.127 75.7383 568.698 74.8015 569.213 73.8439C569.685 72.9629 570.341 72.8096 571.148 73.4191C572.093 74.1294 573.027 74.8573 573.976 75.5642C574.639 76.0587 575.315 76.5323 576.278 77.2287C577.293 75.1219 578.294 73.2101 579.144 71.2356C580.163 68.8641 580.121 68.8084 582.5 69.8218C583.502 70.2501 584.471 70.7864 585.381 71.3854C586.347 72.0226 586.558 72.9176 586.022 74.0006C584.986 76.1039 583.153 77.368 581.217 78.5207C580.357 79.0326 579.454 79.4714 578.502 79.9798C579.585 81.0001 580.6 81.9578 581.718 83.0129C583.798 80.725 585.229 77.9914 586.343 74.819C588.138 75.6269 589.851 76.3651 591.536 77.1661C592.721 77.7302 592.858 78.6704 592.354 79.7987C591.134 82.5219 588.913 84.2457 586.396 85.6839C585.906 85.9659 585.405 86.2271 584.82 86.5475C589.967 91.4437 596.563 93.7559 602.733 97.0085C599.021 98.7357 595.386 100.233 591.473 101.027C587.221 101.887 584.432 99.6516 581.905 96.7856C581.221 96.0125 580.558 95.2185 579.581 94.0798C579.359 97.8965 576.972 97.98 574.371 97.8895C570.003 97.7363 565.652 97.8024 561.436 99.1954C559.232 99.9232 557.269 99.6028 555.784 97.6562C555.682 97.5204 555.524 97.4229 555.383 97.3184C555.316 97.2662 555.231 97.2383 554.956 97.1025C550.112 102.253 543.928 103.907 536.677 103.256C537.093 102.904 537.311 102.674 537.572 102.504C541.982 99.6272 545.79 96.103 549.174 92.1088C550.274 90.8099 550.352 90.4408 548.839 89.5876C545.705 87.8151 545.057 85.0013 545.134 81.8011C545.141 81.5155 545.254 81.23 545.339 80.8364C547.278 81.7767 549.121 82.6821 550.976 83.5631C551.727 83.9218 552.53 84.1865 553.264 84.5765C554.184 85.0675 554.773 84.8794 555.298 83.981C556.084 82.6473 556.976 81.3727 557.819 80.0738C557.745 79.9589 557.674 79.8475 557.6 79.7325C556.211 80.0216 554.79 80.2061 553.44 80.6136C549.495 81.7976 546.745 79.9972 544.179 77.1208C544.7 76.8596 545.127 76.5949 545.585 76.4278C549.625 74.9478 553.666 73.4678 557.72 72.0261C560.537 71.0267 563.198 71.65 565.712 73.0221C567.249 73.8578 567.542 74.6379 566.988 76.2746C565.236 81.4528 562.74 86.2828 559.814 90.9039C559.469 91.4472 559.169 92.0148 558.693 92.8366C564.884 91.7014 570.655 89.5667 577.106 90.2318H577.121Z" fill="black"/>
<path d="M514.42 118.557C516.007 118.418 517.318 118.258 518.633 118.202C519.959 118.143 520.653 117.526 520.745 116.224C520.974 113.062 521.295 109.904 521.415 106.735C521.595 102.04 521.633 97.3428 521.728 92.6486C521.739 92.2167 521.728 91.7884 521.728 91.0954C519.331 91.2173 517.004 91.1894 514.72 91.4994C512.651 91.7814 510.634 92.4466 508.582 92.9028C507.859 93.063 507.108 93.1953 506.372 93.1918C504.701 93.1848 504.02 92.6799 503.721 91.0676C503.428 89.4901 503.238 87.8847 503.139 86.2828C502.878 82.0727 502.684 77.859 502.472 73.6489C502.458 73.3947 502.522 73.137 502.532 73.0116C505.198 72.1967 507.754 71.3331 510.355 70.6401C514.787 69.4596 519.292 68.7945 523.717 70.5322C525.388 71.1869 526.981 72.2002 528.381 73.3285C529.841 74.5055 530.521 76.1283 530.486 78.1481C530.302 88.6299 530.359 99.1187 530.087 109.597C529.964 114.406 529.506 119.233 528.801 123.997C528.138 128.492 526.054 129.29 522.081 126.964C518.718 124.993 516.708 121.803 514.406 118.557H514.42ZM509.939 80.0529C512.252 79.743 514.466 79.4122 516.687 79.1649C518.457 78.9664 519.99 80.1086 520.361 81.801C520.526 82.5637 520.304 83.1278 519.458 83.2218C516.387 83.5701 513.313 83.8835 510.095 84.2282C510.144 84.6775 510.221 85.3879 510.313 86.2306C511.297 86.1609 512.164 86.0565 513.031 86.0425C515.834 85.9938 518.7 85.064 521.492 86.7564C521.316 83.8173 521.175 81.0454 520.971 78.2769C520.851 76.6507 520.473 76.2397 518.809 76.3999C516.236 76.6472 513.673 77.0476 511.124 77.4864C509.573 77.7546 509.308 78.4441 509.939 80.0529Z" fill="black"/>
<path d="M545.395 127.267C551.043 122.726 554.279 117.196 554.804 114.869C549.15 117.004 546.026 113.4 542.479 109.831C543.209 109.618 543.597 109.465 544.002 109.392C548.155 108.653 552.308 107.891 556.476 107.222C557.551 107.048 558.065 106.648 557.963 105.554C557.847 104.308 557.868 103.036 557.621 101.814C557.466 101.038 557.692 100.661 558.355 100.641C559.842 100.588 561.355 100.494 562.814 100.721C564.415 100.964 565.208 102.236 565.599 103.709C565.765 104.335 565.839 104.987 565.998 105.864C567.517 105.683 569.051 105.502 570.694 105.307C570.694 103.409 570.704 101.675 570.69 99.9372C570.683 99.0735 571.018 98.6522 571.952 98.7358C573.44 98.8646 574.952 98.8402 576.426 99.0631C578.644 99.4009 579.165 100.094 579.158 102.281C579.158 102.967 579.158 103.656 579.158 104.436C581.379 104.287 583.554 104.081 585.733 104.015C587.482 103.963 589.241 104.05 590.99 104.154C591.434 104.182 591.935 104.433 592.276 104.732C593.74 106.007 594.628 110.001 593.916 111.829C593.524 112.836 592.654 112.965 591.744 112.926C588.141 112.78 584.538 112.599 580.932 112.449C579.969 112.411 579.007 112.442 577.671 112.442C577.889 114.385 577.917 116.252 578.386 118.007C578.58 118.731 579.648 119.567 580.445 119.724C582.187 120.062 584.023 120.18 585.793 120.044C587.602 119.905 588.896 118.735 589.78 117.154C590.179 116.443 590.644 115.768 591.085 115.071C593.574 116.903 595.527 122.318 594.589 125.027C594.335 125.755 593.581 126.57 592.862 126.838C591.071 127.507 589.188 128.2 587.309 128.311C584.073 128.506 580.776 128.548 577.568 128.155C572.227 127.5 570.472 125.4 570.123 120.079C569.967 117.701 569.855 115.322 569.71 112.745C568.332 112.867 566.971 112.888 565.666 113.156C565.169 113.257 564.679 113.867 564.383 114.358C563.156 116.416 562.081 118.561 560.808 120.591C557.459 125.933 551.956 128.318 545.399 127.27L545.395 127.267Z" fill="black"/>
<path d="M312.659 81.2648C311.393 79.8788 310.121 78.6217 309.014 77.2323C307.744 75.6373 307.744 74.5508 309.345 73.3146C310.459 72.4545 311.961 72.0157 313.357 71.6152C313.805 71.4864 314.756 71.9321 314.975 72.3639C316.05 74.4951 316.988 76.6925 317.912 78.8968C318.367 79.9868 318.278 81.021 317.062 81.6444C319.953 84.9805 317.975 90.4129 313.001 90.8587C311.168 91.0223 309.341 91.2731 307.304 91.5064C307.713 92.7043 308.048 93.8117 308.471 94.8808C309.814 98.2795 311.22 101.65 312.539 105.056C313.336 107.114 313.022 107.804 310.836 108.389C306.151 109.646 301.353 109.705 296.558 109.315C295.849 109.256 294.933 108.636 294.573 108.016C293.452 106.077 292.553 104.011 291.45 101.748C292.398 101.668 292.987 101.602 293.579 101.567C295.335 101.469 297.09 101.393 298.846 101.285C299.646 101.236 299.925 100.808 299.639 100.049C298.754 97.6876 297.901 95.3126 296.942 92.9794C296.812 92.666 296.132 92.4014 295.708 92.4048C291.263 92.4501 286.817 92.5581 282.375 92.6347C281.716 92.6451 281.053 92.5372 280.397 92.5755C277.789 92.7322 276.132 91.3427 275.088 89.215C274.298 87.6062 273.794 85.8615 273.079 83.9462C280.066 83.685 286.627 83.4413 293.297 83.194C292.606 80.7181 291.883 78.4998 291.376 76.2328C290.713 73.2624 290.099 73.729 293.54 72.6948C295.109 72.2246 296.826 72.1829 298.483 72.0645C300.017 71.953 301.102 72.6599 301.585 74.1573C302.255 76.2224 302.914 78.2909 303.598 80.349C304.17 82.0658 304.452 82.2503 306.292 82.0449C308.414 81.8081 310.533 81.526 312.666 81.2613L312.659 81.2648Z" fill="black"/>
<path d="M379.255 91.778C379.385 91.7676 379.519 91.7572 379.649 91.7502C382.382 91.6179 382.505 91.8442 382.378 94.5082C382.205 98.1473 382.234 101.793 382.124 105.436C382.093 106.446 382.449 106.763 383.482 106.797C387.892 106.947 391.957 108.257 395.616 110.701C398.666 112.738 399.917 115.681 399.653 119.24C399.395 122.666 396.092 124.15 393.254 122.099C391.692 120.971 390.349 119.546 388.759 118.467C387.145 117.37 385.361 116.506 383.63 115.587C382.611 115.047 382.237 115.507 382.142 116.551C382.015 117.93 381.846 119.323 381.521 120.668C380.862 123.405 379.244 125.498 376.611 126.615C371.477 128.795 366.14 129.241 360.732 127.841C359.325 127.476 357.961 126.706 356.759 125.867C351.805 122.412 352.391 115.131 356.604 111.84C359.748 109.381 363.422 108.298 367.261 107.602C368.516 107.375 369.782 107.173 371.051 107.073C371.946 106.999 372.235 106.658 372.232 105.774C372.218 102.469 372.257 99.1606 372.313 95.8559C372.352 93.5749 372.859 92.9307 375.095 92.4118C376.459 92.0949 377.862 91.9208 379.244 91.6805C379.251 91.7119 379.255 91.7432 379.262 91.7711L379.255 91.778ZM372.51 114.622C369.651 114.542 367.113 114.925 364.786 116.179C363.372 116.938 362.946 118.491 363.785 119.595C365.075 121.284 366.803 121.677 368.84 121.197C370.832 120.727 372.038 119.644 372.324 117.763C372.472 116.785 372.447 115.782 372.51 114.622Z" fill="black"/>
<path d="M167.125 62.979C165.182 62.1014 163.285 61.102 161.283 60.3742C157.334 58.9394 153.227 59.0126 149.173 59.7543C144.586 60.5935 140.366 62.3904 136.637 65.2285C131.154 69.3934 127.361 74.617 125.782 81.3727C123.49 91.1581 126.265 99.756 131.948 107.657C135.752 112.947 140.529 117.199 146.529 120.002C151.623 122.381 157.021 123.77 162.619 123.471C175.836 122.767 186.24 117.196 192.726 105.425C194.461 102.277 195.561 98.8959 196.047 95.3299C196.097 94.9573 196.34 94.6091 196.495 94.2469C196.615 94.2504 196.735 94.2539 196.851 94.2574C196.982 94.5882 197.2 94.9086 197.232 95.2464C198.127 104.903 195.804 113.424 188.256 120.121C183.969 123.923 178.907 126.211 173.418 127.726C168.44 129.098 163.356 129.586 158.248 129.053C147.453 127.932 138.494 123.213 131.299 115.172C126.73 110.064 123.458 104.273 121.805 97.6596C120.624 92.948 120.338 88.1842 121.044 83.3159C122.154 75.6582 125.612 69.3342 131.422 64.2465C137.081 59.2946 143.663 56.568 151.302 56.366C156.164 56.2371 160.666 57.16 164.555 60.1826C165.563 60.9662 166.427 61.9273 167.357 62.8048C167.28 62.8606 167.202 62.9198 167.121 62.9755L167.125 62.979Z" fill="black"/>
<path d="M368.527 81.7976C370.504 81.5608 372.193 81.317 373.889 81.1603C375.627 81.0002 377.471 80.8992 378.415 82.7344C379.498 84.8377 379.649 87.1151 378.609 89.2707C378.341 89.8244 377.361 90.2597 376.656 90.3503C373.515 90.7612 370.36 91.0815 367.204 91.3183C365.83 91.4193 365.047 91.8929 364.462 93.2058C361.684 99.4531 358.874 105.697 354.724 111.223C353.286 113.139 351.883 115.127 349.598 116.2C346.757 117.533 343.778 117.345 340.788 116.893C339.664 116.722 338.553 116.471 337.09 116.193C343.908 109.517 349.369 102.201 352.997 93.5157C351.403 93.7107 349.895 93.9092 348.379 94.0764C347.723 94.1495 347.06 94.2087 346.404 94.1808C342.414 94.0102 339.202 91.2452 338.303 87.2893C338.081 86.3142 338.603 86.248 339.36 86.1331C344.754 85.3217 350.134 84.4407 355.532 83.6433C356.434 83.5109 356.836 83.1139 357.009 82.2956C357.721 78.8933 358.454 75.4911 359.173 72.0888C359.618 69.9855 359.695 69.8775 361.853 69.9681C362.812 70.0064 363.792 70.1352 364.708 70.3999C368.738 71.563 370.018 73.6733 369.26 77.7372C369.024 79.0083 368.802 80.2863 368.53 81.7976H368.527Z" fill="black"/>
<path d="M120.465 74.8433C120.328 75.3239 120.212 75.8114 120.056 76.285C119.016 79.4087 117.733 82.4731 116.982 85.6595C115.78 90.7681 116.009 95.9428 117.236 101.048C118.615 106.783 121.075 112.021 124.731 116.705C130.862 124.557 138.66 129.986 148.348 132.744C153.428 134.189 158.607 134.976 163.864 134.559C173.428 133.796 182.235 131.041 189.307 124.209C189.536 123.986 189.839 123.836 190.107 123.652C190.206 123.715 190.301 123.781 190.4 123.843C190.238 124.219 190.139 124.644 189.899 124.968C184.692 131.992 177.8 136.763 169.561 139.712C162.993 142.066 156.22 142.881 149.293 142.028C142.277 141.165 135.815 138.723 129.998 134.764C121.918 129.269 116.432 121.803 113.51 112.588C111.951 107.664 111.5 102.573 111.853 97.381C112.279 91.085 113.862 85.1441 116.806 79.5689C117.708 77.859 118.826 76.2571 119.841 74.603C120.049 74.6831 120.257 74.7632 120.465 74.8433Z" fill="black"/>
<path d="M210.089 83.9463C217.049 83.6886 223.546 83.4518 230.248 83.2045C230.082 82.5498 229.983 82.1076 229.864 81.6723C229.25 79.454 228.63 77.2323 228.013 75.014C227.738 74.032 227.918 73.3077 229.084 73.1231C231.284 72.7714 233.47 72.3222 235.681 72.0924C237.034 71.9496 238.043 72.6809 238.483 74.0111C239.167 76.0727 239.823 78.1447 240.507 80.2097C241.131 82.0902 241.378 82.2399 243.366 82.0484C246.123 81.7837 248.873 81.4181 251.637 81.2753C253.995 81.1499 255.081 82.2504 255.286 84.594C255.557 87.7176 253.801 90.1135 250.646 90.695C248.591 91.0746 246.497 91.2522 244.163 91.5552C245.203 94.2087 246.179 96.7056 247.159 99.2024C247.988 101.309 248.855 103.399 249.631 105.526C250.17 107.006 249.856 107.821 248.312 108.204C246.105 108.748 243.838 109.155 241.572 109.336C239.079 109.535 236.551 109.528 234.055 109.364C233.17 109.308 231.979 108.748 231.545 108.044C230.368 106.143 229.518 104.043 228.542 102.02C228.623 101.87 228.7 101.724 228.781 101.574C229.539 101.574 230.301 101.602 231.059 101.567C232.596 101.501 234.133 101.417 235.67 101.313C236.583 101.25 236.89 100.818 236.537 99.9128C235.656 97.6423 234.863 95.337 233.928 93.0874C233.784 92.7392 233.079 92.4153 232.635 92.4188C228.189 92.4536 223.74 92.5651 219.294 92.6452C218.723 92.6556 218.149 92.5581 217.581 92.5999C214.687 92.8053 212.931 91.2383 211.831 88.8529C211.133 87.3381 210.699 85.7048 210.082 83.9497L210.089 83.9463Z" fill="black"/>
<path d="M479.018 127.695C476.715 125.933 475.365 123.861 475.379 120.838C475.436 107.264 475.379 93.6864 475.288 80.1122C475.281 79.0605 474.72 78.0123 474.396 76.898C480.576 73.4156 487.218 71.1277 494.699 71.8277C498.411 72.1759 501.344 76.501 500.22 79.656C498.848 83.504 497.643 87.4077 496.324 91.2731C496.088 91.9626 495.788 92.7601 495.249 93.171C494.854 93.4705 494.015 93.1396 493.394 93.2267C490.958 93.5714 488.529 93.965 486.1 94.348C485.885 94.3828 485.677 94.4629 485.462 94.5117C482.73 95.1176 482.762 95.1176 482.723 97.9453C482.621 105.774 482.427 113.598 482.406 121.427C482.399 124.143 481.239 126.069 479.014 127.691L479.018 127.695ZM483.227 88.5325C485.966 88.1425 488.695 87.7664 491.417 87.3415C491.681 87.2997 492.065 86.9898 492.111 86.753C492.545 84.4547 492.954 82.1459 493.289 79.8301C493.444 78.7506 492.873 78.1725 491.737 78.3188C489.52 78.6043 487.299 78.876 485.099 79.2486C483.449 79.5272 483.329 79.8057 483.604 81.8046C484.877 81.5051 486.132 81.1847 487.401 80.9166C489.915 80.3908 490.8 80.9027 491.695 83.2811C492.037 84.19 491.9 84.8099 490.86 85.0397C488.758 85.4994 486.668 86.0078 484.556 86.3909C482.903 86.6938 482.716 86.9132 483.227 88.5395V88.5325Z" fill="black"/>
<path d="M510.765 105.436C511.561 105.436 512.171 105.471 512.778 105.429C515.048 105.272 516.43 106.056 517.068 108.173C517.399 109.273 517.481 110.482 517.459 111.638C517.442 112.742 516.497 112.989 515.566 113.02C514.777 113.045 513.983 112.972 513.194 112.937C512.457 112.905 511.723 112.867 510.863 112.825C510.768 115.601 510.662 118.286 510.588 120.967C510.528 123.077 510.102 125 508.254 126.372C507.13 127.207 506.09 127.343 505.293 126.201C504.584 125.188 503.999 123.875 503.95 122.673C503.837 119.86 504.08 117.029 504.172 114.204C504.186 113.779 504.172 113.351 504.172 112.679C502.568 112.853 501.01 112.972 499.473 113.233C499.102 113.295 498.676 113.766 498.51 114.149C498.013 115.305 497.618 116.506 497.202 117.697C495.263 123.255 491.741 125.908 485.536 126.316C488.685 122.841 491.431 119.285 492.418 114.504C490.356 114.821 488.448 114.828 486.985 113.191C486.072 112.171 484.898 111.342 484.549 109.757C487.13 109.19 489.601 108.605 492.09 108.128C492.993 107.954 493.426 107.633 493.307 106.689C493.243 106.174 493.285 105.648 493.285 105.126C493.285 103.89 493.017 103.047 491.452 102.869C489.799 102.681 487.962 100.613 487.338 98.6452C487.761 98.4885 488.184 98.2726 488.632 98.1786C494.946 96.8309 501.263 95.4937 507.585 94.1704C508.096 94.0624 508.632 94.045 509.157 94.0415C512.242 94.0172 514.304 96.7926 513.261 99.669C513.07 100.191 512.429 100.801 511.903 100.898C510.874 101.09 510.765 101.692 510.757 102.472C510.747 103.423 510.757 104.377 510.757 105.439L510.765 105.436ZM499.575 106.86C500.971 106.651 502.321 106.484 503.65 106.212C503.89 106.164 504.207 105.693 504.214 105.415C504.278 101.936 503.714 101.438 500.216 101.793C499.998 101.814 499.695 101.751 499.575 101.87C499.296 102.148 498.88 102.535 498.912 102.838C499.046 104.126 499.321 105.401 499.578 106.86H499.575Z" fill="black"/>
<path d="M139.806 77.6989C144.964 74.2165 150.435 73.2206 156.358 74.8538C159.876 75.8254 162.552 77.981 164.548 81.0594C164.308 80.9584 164.036 80.9026 163.828 80.7529C157.119 75.9333 147.481 77.3576 142.02 82.7448C135.018 89.6573 135.237 100.703 142.633 107.403C144.622 109.204 146.973 110.607 149.043 112.108C146.032 111.707 143.261 110.252 140.712 108.357C134.761 103.942 131.137 97.9835 130.069 90.8099C128.168 78.0506 134.581 67.7672 146.007 63.4631C152.272 61.102 158.706 61.1473 164.71 64.6192C167.957 66.4962 170.174 69.2298 170.763 73.0395C171.101 75.2195 170.35 78.465 168.2 79.2451C168.179 79.1267 168.112 79.0048 168.14 78.9073C169.808 73.541 166.067 69.2403 161.569 67.7777C156.975 66.2838 152.621 67.2519 148.468 69.4109C145.002 71.2148 142.33 73.8857 140.109 77.0303C139.968 77.2288 139.905 77.476 139.802 77.7024L139.806 77.6989Z" fill="black"/>
<path d="M247.441 112.39C248.168 114.166 248.929 115.695 249.426 117.3C250.628 121.19 248.88 124.634 244.928 125.842C242.767 126.5 240.465 126.863 238.201 127.019C233.068 127.368 227.91 127.667 222.816 126.612C221.364 126.312 219.925 125.849 218.543 125.303C213.128 123.157 210.424 119.323 210.939 112.575C211.404 106.46 216.953 102.42 223.095 103.493C223.299 103.527 223.493 103.632 223.789 103.74C223.557 104.489 223.356 105.189 223.126 105.882C222.358 108.201 222.252 110.572 222.559 112.972C222.901 115.625 224.505 117.23 227.075 117.777C233.928 119.24 240.398 118.818 245.806 113.706C246.243 113.292 246.743 112.947 247.445 112.39H247.441Z" fill="black"/>
<path d="M286.704 103.559C286.281 105.467 285.805 107.139 285.576 108.842C285.403 110.116 285.492 111.436 285.576 112.731C285.756 115.413 287.304 117.13 289.863 117.711C296.685 119.257 303.168 118.906 308.65 113.884C309.161 113.414 309.715 112.989 310.522 112.31C311.319 114.466 312.243 116.395 312.733 118.425C313.498 121.594 311.474 124.913 307.977 125.811C304.984 126.581 301.846 126.953 298.751 127.138C294.104 127.42 289.415 127.622 284.85 126.368C283.249 125.929 281.674 125.344 280.172 124.644C276.273 122.827 274.341 119.64 273.992 115.468C273.9 114.389 273.942 113.295 273.974 112.212C274.069 108.974 275.645 106.588 278.455 105.021C280.975 103.615 283.694 103.137 286.704 103.559Z" fill="black"/>
<path d="M183.518 99.352C183.053 100.059 182.781 100.609 182.386 101.048C179.115 104.708 174.979 107.027 170.287 108.378C164.389 110.078 158.445 110.248 152.646 108.058C146.628 105.784 142.334 101.804 140.952 95.3265C139.605 89.0164 143.938 82.4418 150.354 80.9061C154.807 79.8405 159.051 80.1817 162.827 82.8945C166.152 85.2834 167.999 88.4349 167.132 92.6764C166.79 94.3479 164.777 96.8204 162.665 96.4721C163.12 95.9185 163.624 95.4449 163.962 94.8738C165.806 91.7571 163.79 87.3031 159.94 85.9276C156.608 84.7366 152.931 85.6281 150.657 88.1772C148.408 90.7019 147.992 94.832 149.79 97.9661C151.958 101.751 155.371 103.994 159.591 104.861C167.883 106.567 175.484 104.962 182.214 99.7525C182.386 99.6202 182.566 99.4913 182.76 99.3938C182.859 99.3451 183 99.3729 183.518 99.3486V99.352Z" fill="black"/>
<path d="M145.21 114.702C148.546 115.256 151.898 116.005 155.057 114.855C158.734 113.518 162.524 114.357 166.219 113.605C174.063 112.007 180.416 108.211 185.281 101.957C187.749 98.781 189.465 95.229 190.456 91.3566C191.44 87.5086 191.5 83.6258 190.565 79.743C190.488 79.4261 190.477 79.0953 190.724 78.6042C190.985 78.8863 191.313 79.1266 191.493 79.4505C194.098 84.1481 195.05 89.1209 193.946 94.4106C191.531 105.982 183.99 113.024 173.213 117.109C167.273 119.362 161.114 119.633 154.898 118.495C151.687 117.906 148.613 116.865 145.806 115.158C145.595 115.03 145.411 114.852 145.214 114.699L145.21 114.702Z" fill="black"/>
<path d="M387.62 82.2398C391.058 82.4313 394.294 83.1487 396.522 85.8858C397.788 87.439 398.775 89.302 399.494 91.172C400.287 93.2336 399.025 95.2464 396.677 96.0334C393.892 96.9666 391.185 96.8448 389.274 93.9126C387.176 90.7019 385.064 87.5051 382.939 84.3153C382.357 83.4412 382.579 82.9293 383.587 82.7726C384.927 82.5672 386.274 82.4139 387.62 82.2363V82.2398Z" fill="black"/>
<path d="M177.796 78.9351C180.535 78.9351 182.718 81.1115 182.704 83.8382C182.69 86.4987 180.528 88.6195 177.817 88.6334C175.089 88.6473 172.871 86.4186 172.913 83.6954C172.956 80.9618 175.032 78.9385 177.8 78.9351H177.796Z" fill="black"/>
<path d="M324.296 77.2044C323.524 76.9258 322.569 76.8423 322.015 76.3338C320.394 74.8434 318.927 73.1893 317.411 71.5909C317.298 71.4725 317.252 71.2844 317.189 71.1243C316.66 69.8079 317.457 68.5438 319.435 67.5444C321.934 66.2838 323.214 66.2629 323.954 67.6837C324.991 69.6826 325.981 71.7232 326.761 73.8266C327.561 75.9926 326.665 77.0582 324.3 77.2044H324.296Z" fill="black"/>
</g>
<defs>
<linearGradient id="paint0_linear_260_4" x1="21.8806" y1="62.5281" x2="228.657" y2="135.239" gradientUnits="userSpaceOnUse">
<stop stop-color="#4FACFE"/>
<stop offset="1" stop-color="#00F2FE"/>
</linearGradient>
<clipPath id="clip0_260_4">
<rect width="491" height="86" fill="white" transform="translate(111.74 56.3556)"/>
</clipPath>
</defs>
</svg>
