<svg width="615" height="222" viewBox="0 0 615 222" fill="none" xmlns="http://www.w3.org/2000/svg">
<g clip-path="url(#clip0_259_3)">
<path d="M399.36 37.3775C396.339 37.6574 393.504 37.9286 390.665 38.1866C389.733 38.2697 388.797 38.3528 387.861 38.3921C383.573 38.567 380.305 36.1137 379.131 31.981C378.676 30.3717 379.612 29.6633 380.831 29.3353C384.439 28.3644 388.046 27.1224 391.729 26.7463C397.633 26.1428 403.599 26.1122 409.542 25.9373C410.726 25.9023 411.927 26.2828 413.106 26.5321C414.815 26.895 415.512 28.0583 415.212 29.6764C414.947 31.1108 414.523 32.5364 414.011 33.9052C411.975 39.3236 409.878 44.7201 407.811 50.1254C407.657 50.5277 407.568 50.9519 407.462 51.3367C412.589 52.0889 417.636 52.8323 422.856 53.602C423.055 51.7697 423.209 49.8324 423.492 47.9082C424.017 44.3265 425.505 42.984 428.72 43.0583C430.813 43.1064 431.988 43.8761 432.332 45.9315C432.902 49.3207 433.326 52.7361 433.617 56.1603C433.728 57.4635 434.196 58.0408 435.388 58.4825C437.706 59.344 440.016 60.2711 442.21 61.4038C447.443 64.102 447.924 71.156 443.208 74.6676C442.153 75.4504 441.058 75.4854 439.945 74.9344C438.029 73.9767 436.139 72.9665 434.244 71.9606C433.432 71.5321 432.641 71.0598 432.027 70.7143C430.332 74.5364 428.835 78.3411 426.993 81.9708C424.697 86.4971 421.324 89.9431 415.963 90.7259C412.549 91.2245 409.238 90.7609 406.248 88.9373C404.469 87.8527 404.451 87.07 405.948 85.6487C408.527 83.1953 411.516 81.0219 413.543 78.1837C416.06 74.6589 417.782 70.5787 419.84 66.7347C420.476 65.5408 419.981 64.7755 418.762 64.6049C414.629 64.0277 410.496 63.4067 406.341 63.0568C403.502 62.8207 403.484 63.0131 402.406 65.6589C400.017 71.5321 397.593 77.3921 393.981 82.6749C391.932 85.6705 389.424 88.207 385.958 89.5146C379.493 91.9548 373.275 89.6589 369.641 83.6283C363.278 73.0714 368.246 59.6633 380.447 55.2726C384.439 53.8382 388.784 53.3396 392.996 52.5525C394.206 52.3251 395.006 52.0321 395.39 50.7595C396.591 46.7886 397.889 42.844 399.134 38.8863C399.258 38.4927 399.262 38.0641 399.36 37.3775ZM390.643 64.0845C390.484 63.914 390.325 63.7478 390.166 63.5773C387.07 63.2886 384.2 64.1501 381.612 65.7595C378.018 67.9942 376.839 72.0175 378.42 75.9184C378.91 77.1341 379.599 78.153 381.03 78.3805C382.509 78.6166 383.524 77.8076 384.134 76.6662C386.359 72.4985 388.483 68.2828 390.643 64.0845Z" fill="black"/>
<path d="M582.91 42.5423C579.696 37.7624 576.874 32.9344 572.326 29.4577C570.559 28.1064 570.317 27.6472 571.138 25.6006C571.646 24.3411 572.361 23.1647 573.006 21.9621C573.597 20.8557 574.419 20.6633 575.43 21.4286C576.613 22.3207 577.784 23.2347 578.972 24.1225C579.802 24.7434 580.65 25.3382 581.855 26.2128C583.127 23.5671 584.381 21.1662 585.445 18.6866C586.721 15.7085 586.668 15.6385 589.649 16.9111C590.903 17.449 592.117 18.1224 593.257 18.8746C594.466 19.6749 594.731 20.7988 594.06 22.1589C592.762 24.8003 590.466 26.3878 588.042 27.8353C586.964 28.4781 585.834 29.0292 584.641 29.6676C585.997 30.949 587.269 32.1516 588.669 33.4767C591.274 30.6035 593.067 27.1706 594.462 23.1866C596.71 24.2012 598.856 25.1283 600.967 26.1341C602.45 26.8426 602.622 28.0233 601.991 29.4402C600.463 32.8601 597.681 35.0248 594.528 36.8309C593.915 37.1851 593.287 37.5131 592.554 37.9155C599.002 44.0641 607.263 46.9679 614.991 51.0525C610.341 53.2216 605.789 55.102 600.887 56.0991C595.562 57.1793 592.069 54.3717 588.903 50.7726C588.046 49.8018 587.216 48.8047 585.993 47.3746C585.714 52.1676 582.725 52.2726 579.466 52.1589C573.995 51.9665 568.546 52.0496 563.265 53.7988C560.505 54.7128 558.045 54.3105 556.186 51.8659C556.058 51.6953 555.859 51.5729 555.683 51.4417C555.599 51.3761 555.493 51.3411 555.148 51.1706C549.081 57.6385 541.336 59.7157 532.252 58.898C532.774 58.4563 533.047 58.1676 533.374 57.9534C538.898 54.3411 543.667 49.9155 547.906 44.8994C549.284 43.2682 549.381 42.8047 547.487 41.7332C543.561 39.5073 542.749 35.9738 542.846 31.9548C542.855 31.5962 542.996 31.2376 543.102 30.7434C545.531 31.9242 547.84 33.0612 550.163 34.1676C551.103 34.6181 552.11 34.9504 553.029 35.4402C554.181 36.0569 554.919 35.8207 555.577 34.6924C556.561 33.0175 557.679 31.4169 558.734 29.7857C558.641 29.6414 558.553 29.5015 558.46 29.3571C556.72 29.7201 554.941 29.9519 553.25 30.4636C548.308 31.9504 544.864 29.6895 541.649 26.0773C542.303 25.7493 542.837 25.4169 543.411 25.207C548.472 23.3484 553.532 21.4898 558.61 19.6793C562.139 18.4242 565.472 19.207 568.621 20.93C570.546 21.9796 570.913 22.9592 570.219 25.0146C568.025 31.5175 564.898 37.5831 561.233 43.3863C560.801 44.0685 560.425 44.7813 559.829 45.8134C567.583 44.3878 574.812 41.707 582.893 42.5423H582.91Z" fill="black"/>
<path d="M504.376 78.1137C506.363 77.9388 508.005 77.7376 509.653 77.6677C511.313 77.5933 512.183 76.8193 512.298 75.1837C512.585 71.2128 512.986 67.2464 513.137 63.2668C513.362 57.3717 513.41 51.4723 513.53 45.5773C513.543 45.035 513.53 44.4971 513.53 43.6268C510.527 43.7799 507.612 43.7449 504.751 44.1341C502.159 44.4883 499.633 45.3236 497.063 45.8965C496.158 46.0977 495.217 46.2639 494.294 46.2595C492.201 46.2507 491.349 45.6166 490.974 43.5918C490.607 41.6108 490.369 39.5948 490.245 37.5831C489.918 32.2959 489.675 27.0044 489.411 21.7172C489.393 21.398 489.472 21.0744 489.486 20.9169C492.824 19.8936 496.025 18.809 499.284 17.9388C504.835 16.4563 510.478 15.621 516.02 17.8032C518.113 18.6254 520.109 19.898 521.862 21.3149C523.69 22.793 524.543 24.8309 524.498 27.3674C524.269 40.5306 524.339 53.7026 523.999 66.8615C523.845 72.9009 523.271 78.9621 522.388 84.9446C521.557 90.5904 518.948 91.5918 513.971 88.6706C509.758 86.1953 507.242 82.1895 504.358 78.1137H504.376ZM498.763 29.7595C501.66 29.3703 504.433 28.9548 507.215 28.6443C509.432 28.3951 511.353 29.8295 511.816 31.9548C512.024 32.9125 511.746 33.621 510.686 33.7391C506.84 34.1764 502.989 34.57 498.957 35.0029C499.019 35.5671 499.116 36.4592 499.231 37.5175C500.463 37.43 501.55 37.2988 502.636 37.2814C506.146 37.2201 509.736 36.0525 513.234 38.1779C513.013 34.4869 512.836 31.0058 512.58 27.5292C512.43 25.4869 511.958 24.9709 509.873 25.172C506.65 25.4825 503.439 25.9854 500.247 26.5365C498.304 26.8732 497.973 27.7391 498.763 29.7595Z" fill="black"/>
<path d="M543.173 89.051C550.247 83.3484 554.301 76.4038 554.959 73.4825C547.876 76.1633 543.963 71.637 539.521 67.1545C540.435 66.8878 540.921 66.6953 541.429 66.6035C546.63 65.6764 551.832 64.7187 557.052 63.879C558.398 63.6604 559.043 63.1574 558.915 61.7843C558.769 60.2187 558.796 58.6224 558.487 57.0875C558.292 56.1122 558.575 55.6399 559.405 55.6137C561.269 55.5481 563.163 55.43 564.991 55.7143C566.996 56.0204 567.99 57.6166 568.48 59.4665C568.687 60.2536 568.78 61.0714 568.979 62.1735C570.882 61.9461 572.803 61.7187 574.861 61.4738C574.861 59.0904 574.874 56.9125 574.856 54.7303C574.847 53.6458 575.267 53.1166 576.437 53.2216C578.3 53.3834 580.195 53.3528 582.041 53.6326C584.818 54.0568 585.472 54.9271 585.463 57.6735C585.463 58.535 585.463 59.4009 585.463 60.3805C588.245 60.1924 590.969 59.9344 593.698 59.8513C595.889 59.7857 598.092 59.895 600.282 60.0262C600.839 60.0612 601.466 60.3761 601.894 60.7522C603.727 62.3528 604.839 67.3688 603.947 69.6647C603.457 70.9286 602.366 71.0904 601.227 71.0423C596.714 70.8586 592.201 70.6312 587.684 70.4431C586.478 70.395 585.273 70.4344 583.599 70.4344C583.873 72.8746 583.908 75.2187 584.496 77.4227C584.739 78.3324 586.077 79.3819 587.075 79.5787C589.256 80.0029 591.557 80.1516 593.773 79.981C596.039 79.8061 597.659 78.3367 598.768 76.3513C599.267 75.4592 599.849 74.6108 600.401 73.7362C603.519 76.0364 605.965 82.8367 604.791 86.2391C604.473 87.1531 603.528 88.1764 602.627 88.5131C600.384 89.3528 598.026 90.223 595.672 90.363C591.618 90.6079 587.49 90.6603 583.471 90.1662C576.781 89.344 574.582 86.707 574.145 80.0248C573.951 77.0379 573.81 74.051 573.629 70.8149C571.902 70.9679 570.197 70.9942 568.564 71.3309C567.941 71.4577 567.327 72.223 566.956 72.8396C565.42 75.4242 564.073 78.1181 562.479 80.6676C558.284 87.3761 551.391 90.3717 543.177 89.0554L543.173 89.051Z" fill="black"/>
<path d="M251.66 31.2814C250.075 29.5408 248.481 27.9621 247.094 26.2172C245.505 24.2143 245.505 22.8499 247.509 21.2974C248.905 20.2172 250.786 19.6662 252.534 19.1633C253.095 19.0015 254.288 19.5612 254.561 20.1035C255.908 22.7799 257.083 25.5394 258.24 28.3076C258.809 29.6764 258.699 30.9752 257.175 31.758C260.796 35.9475 258.319 42.7697 252.088 43.3295C249.792 43.535 247.505 43.8499 244.953 44.1429C245.465 45.6472 245.884 47.0379 246.414 48.3805C248.097 52.6487 249.859 56.8819 251.51 61.1589C252.508 63.7435 252.115 64.6093 249.377 65.344C243.509 66.9228 237.499 66.9971 231.493 66.5073C230.606 66.433 229.458 65.6545 229.007 64.8761C227.603 62.4403 226.477 59.847 225.095 57.0044C226.283 56.9038 227.02 56.8207 227.762 56.777C229.961 56.6545 232.16 56.5583 234.359 56.4228C235.361 56.3615 235.71 55.8236 235.353 54.8703C234.244 51.9053 233.176 48.9228 231.975 45.9927C231.811 45.5991 230.959 45.2668 230.429 45.2711C224.861 45.328 219.292 45.4636 213.729 45.5598C212.903 45.5729 212.073 45.4373 211.251 45.4854C207.984 45.6822 205.908 43.9373 204.601 41.2653C203.612 39.2449 202.981 37.0539 202.084 34.6487C210.836 34.3207 219.054 34.0146 227.409 33.7041C226.543 30.5948 225.638 27.809 225.002 24.9621C224.172 21.2318 223.404 21.8178 227.713 20.519C229.678 19.9286 231.829 19.8761 233.904 19.7274C235.825 19.5875 237.185 20.4752 237.79 22.3557C238.629 24.949 239.455 27.5467 240.312 30.1312C241.027 32.2872 241.38 32.519 243.685 32.2609C246.344 31.9636 248.997 31.6093 251.669 31.277L251.66 31.2814Z" fill="black"/>
<path d="M335.074 44.484C335.238 44.4708 335.405 44.4577 335.569 44.449C338.991 44.2828 339.146 44.567 338.987 47.9125C338.77 52.4825 338.806 57.0612 338.669 61.6356C338.629 62.9038 339.075 63.3017 340.369 63.3455C345.893 63.5335 350.984 65.1778 355.568 68.2478C359.388 70.8061 360.955 74.5015 360.624 78.9708C360.302 83.274 356.164 85.137 352.609 82.5612C350.653 81.1443 348.971 79.3557 346.979 78C344.957 76.6224 342.722 75.5379 340.554 74.3834C339.278 73.7055 338.81 74.2828 338.691 75.5947C338.532 77.3265 338.32 79.0758 337.914 80.7638C337.088 84.2012 335.061 86.8294 331.762 88.2332C325.333 90.9708 318.648 91.5306 311.874 89.7726C310.112 89.3134 308.403 88.3469 306.897 87.293C300.693 82.9548 301.426 73.8105 306.703 69.6778C310.642 66.5904 315.243 65.2303 320.052 64.3557C321.624 64.0714 323.209 63.8178 324.799 63.691C325.92 63.5991 326.282 63.1705 326.278 62.0598C326.26 57.9096 326.309 53.7551 326.38 49.605C326.428 46.7405 327.064 45.9315 329.864 45.2799C331.573 44.8819 333.33 44.6633 335.061 44.3615C335.07 44.4009 335.074 44.4402 335.083 44.4752L335.074 44.484ZM326.627 73.172C323.046 73.0714 319.866 73.5525 316.952 75.1268C315.181 76.0802 314.647 78.0306 315.698 79.4169C317.314 81.5379 319.478 82.0321 322.03 81.4286C324.525 80.8382 326.035 79.4781 326.393 77.1166C326.578 75.8877 326.547 74.6283 326.627 73.172Z" fill="black"/>
<path d="M69.372 8.31778C66.9389 7.21574 64.5632 5.96064 62.055 5.04664C57.1093 3.24489 51.965 3.33673 46.8868 4.26822C41.1419 5.32215 35.8562 7.57871 31.1843 11.1429C24.3177 16.3732 19.5663 22.9329 17.588 31.4169C14.7178 43.7055 18.193 54.5029 25.3113 64.4257C30.0759 71.0685 36.0593 76.4082 43.575 79.9286C49.9558 82.9155 56.7163 84.6604 63.7286 84.2843C80.2834 83.4009 93.3144 76.4038 101.439 61.6225C103.612 57.6691 104.99 53.4227 105.599 48.9446C105.661 48.4767 105.966 48.0394 106.16 47.5845C106.31 47.5889 106.46 47.5933 106.606 47.5977C106.769 48.0131 107.043 48.4154 107.083 48.8396C108.204 60.9665 105.294 71.6676 95.8402 80.0773C90.4706 84.8528 84.1295 87.726 77.2542 89.6283C71.0191 91.3513 64.6515 91.9636 58.253 91.2945C44.7319 89.8863 33.5114 83.9606 24.4987 73.863C18.7759 67.4475 14.678 60.1749 12.607 51.8703C11.1277 45.9534 10.7701 39.9708 11.6532 33.8571C13.0442 24.2405 17.3761 16.2988 24.6533 9.90962C31.7406 3.69096 39.9849 0.266758 49.5539 0.0131137C55.6433 -0.148694 61.2823 1.0102 66.1529 4.80612C67.4158 5.79008 68.4977 6.99708 69.6634 8.09912C69.5663 8.16909 69.4691 8.24343 69.3676 8.31341L69.372 8.31778Z" fill="black"/>
<path d="M321.637 31.9504C324.115 31.6531 326.23 31.3469 328.354 31.1501C330.531 30.949 332.84 30.8222 334.024 33.1268C335.379 35.7682 335.569 38.6283 334.266 41.3353C333.931 42.0306 332.703 42.5773 331.82 42.691C327.886 43.207 323.933 43.6093 319.981 43.9067C318.259 44.0335 317.279 44.6283 316.546 46.277C313.066 54.1224 309.547 61.9636 304.349 68.9038C302.548 71.309 300.79 73.8061 297.929 75.1531C294.37 76.828 290.638 76.5918 286.894 76.0233C285.485 75.809 284.094 75.4942 282.262 75.1443C290.802 66.7609 297.642 57.5729 302.186 46.6662C300.19 46.9111 298.3 47.1603 296.401 47.3703C295.58 47.4621 294.75 47.5364 293.928 47.5015C288.93 47.2872 284.907 43.8149 283.781 38.8469C283.503 37.6224 284.156 37.5394 285.105 37.395C291.862 36.3761 298.6 35.2697 305.361 34.2682C306.491 34.102 306.995 33.6035 307.211 32.5758C308.103 28.3032 309.021 24.0306 309.922 19.758C310.479 17.1166 310.576 16.981 313.278 17.0947C314.479 17.1429 315.707 17.3047 316.855 17.637C321.902 19.0977 323.505 21.7478 322.556 26.8513C322.26 28.4475 321.982 30.0525 321.642 31.9504H321.637Z" fill="black"/>
<path d="M10.9291 23.2172C10.7569 23.8207 10.6112 24.4329 10.4169 25.0277C9.11424 28.9504 7.50689 32.7988 6.56633 36.8003C5.06055 43.2157 5.34757 49.7143 6.88427 56.1253C8.61084 63.328 11.6931 69.9052 16.2722 75.7872C23.9513 85.6487 33.719 92.4664 45.8536 95.93C52.2167 97.7449 58.7035 98.7332 65.2875 98.2084C77.2675 97.2507 88.2981 93.7915 97.1562 85.2114C97.4432 84.9315 97.823 84.7434 98.1586 84.5116C98.2822 84.5904 98.4015 84.6734 98.5251 84.7522C98.322 85.2245 98.1983 85.758 97.8981 86.1647C91.3759 94.9854 82.7431 100.977 72.4234 104.681C64.1968 107.637 55.714 108.66 47.037 107.589C38.2496 106.504 30.1555 103.439 22.8694 98.4665C12.7484 91.5656 5.87747 82.1895 2.21678 70.618C0.265001 64.4344 -0.30022 58.0408 0.141359 51.5204C0.675669 43.6137 2.65836 36.153 6.34554 29.1516C7.47598 27.0044 8.87579 24.9927 10.1475 22.9154C10.4081 23.016 10.6686 23.1166 10.9291 23.2172Z" fill="black"/>
<path d="M123.187 34.6487C131.904 34.3251 140.042 34.0277 148.437 33.7172C148.229 32.895 148.106 32.3397 147.955 31.793C147.187 29.0073 146.41 26.2172 145.637 23.4315C145.293 22.1983 145.518 21.2886 146.98 21.0569C149.735 20.6152 152.473 20.051 155.241 19.7624C156.937 19.5831 158.2 20.5015 158.752 22.172C159.609 24.7609 160.43 27.363 161.287 29.9563C162.068 32.3178 162.377 32.5058 164.868 32.2653C168.321 31.9329 171.765 31.4738 175.227 31.2945C178.182 31.137 179.542 32.5189 179.798 35.4621C180.138 39.3848 177.939 42.3936 173.987 43.1239C171.412 43.6006 168.789 43.8236 165.866 44.2041C167.169 47.5364 168.392 50.672 169.619 53.8076C170.657 56.4534 171.743 59.0773 172.715 61.7493C173.39 63.6079 172.997 64.6312 171.063 65.1122C168.299 65.7945 165.46 66.3061 162.62 66.5335C159.498 66.7828 156.332 66.7741 153.206 66.5685C152.097 66.4985 150.605 65.7945 150.062 64.9111C148.587 62.5233 147.523 59.8863 146.3 57.3455C146.401 57.1574 146.498 56.9738 146.6 56.7857C147.549 56.7857 148.503 56.8207 149.452 56.777C151.378 56.6939 153.303 56.5889 155.228 56.4577C156.372 56.379 156.756 55.8367 156.315 54.6997C155.211 51.8484 154.217 48.9534 153.047 46.1283C152.866 45.691 151.983 45.2843 151.426 45.2886C145.858 45.3324 140.285 45.4723 134.717 45.5729C134.002 45.586 133.282 45.4636 132.571 45.516C128.945 45.7741 126.746 43.8061 125.369 40.8105C124.494 38.9082 123.951 36.8571 123.178 34.6531L123.187 34.6487Z" fill="black"/>
<path d="M460.032 89.5889C457.149 87.3761 455.457 84.774 455.475 80.9781C455.546 63.9315 455.475 46.8805 455.36 29.8338C455.351 28.5131 454.649 27.1968 454.243 25.7974C461.984 21.4242 470.303 18.551 479.674 19.43C484.323 19.8673 487.997 25.2988 486.589 29.2609C484.871 34.0933 483.361 38.9956 481.709 43.8498C481.413 44.7157 481.038 45.7172 480.363 46.2332C479.868 46.6093 478.817 46.1939 478.04 46.3032C474.988 46.7361 471.946 47.2303 468.904 47.7114C468.634 47.7551 468.374 47.8557 468.104 47.9169C464.682 48.6778 464.722 48.6778 464.673 52.2289C464.545 62.0598 464.302 71.8863 464.276 81.7172C464.267 85.1283 462.814 87.5466 460.028 89.5845L460.032 89.5889ZM465.305 40.4082C468.736 39.9184 472.154 39.4461 475.563 38.9125C475.894 38.8601 476.375 38.4708 476.432 38.1735C476.976 35.2872 477.488 32.3878 477.907 29.4796C478.102 28.1239 477.386 27.398 475.964 27.5816C473.187 27.9402 470.405 28.2813 467.649 28.7493C465.583 29.0991 465.433 29.449 465.777 31.9592C467.371 31.5831 468.943 31.1808 470.533 30.844C473.681 30.1837 474.79 30.8265 475.911 33.8134C476.34 34.9548 476.168 35.7332 474.865 36.0219C472.233 36.5991 469.614 37.2376 466.969 37.7187C464.898 38.0991 464.664 38.3746 465.305 40.4169V40.4082Z" fill="black"/>
<path d="M499.796 61.6356C500.794 61.6356 501.558 61.6793 502.318 61.6268C505.162 61.43 506.893 62.414 507.692 65.0729C508.107 66.4548 508.209 67.9723 508.182 69.4242C508.16 70.8105 506.977 71.121 505.811 71.1603C504.822 71.191 503.828 71.0991 502.839 71.0554C501.916 71.016 500.998 70.9679 499.92 70.9155C499.801 74.4009 499.668 77.7726 499.576 81.1399C499.501 83.7901 498.966 86.2041 496.652 87.9271C495.244 88.9767 493.941 89.1472 492.943 87.7128C492.056 86.4402 491.323 84.7915 491.261 83.2828C491.119 79.7493 491.424 76.1939 491.539 72.6472C491.557 72.1137 491.539 71.5758 491.539 70.7318C489.53 70.9504 487.578 71.0991 485.653 71.4271C485.189 71.5058 484.655 72.0962 484.447 72.5773C483.825 74.0292 483.33 75.5379 482.809 77.0335C480.38 84.0131 475.969 87.3455 468.197 87.8571C472.14 83.4927 475.58 79.0277 476.817 73.0233C474.234 73.4213 471.845 73.43 470.012 71.3746C468.868 70.0933 467.398 69.0525 466.961 67.0627C470.193 66.3499 473.289 65.6152 476.406 65.016C477.537 64.7974 478.08 64.395 477.929 63.2099C477.85 62.5627 477.903 61.9023 477.903 61.2464C477.903 59.6939 477.567 58.6356 475.607 58.4125C473.536 58.1764 471.235 55.5787 470.454 53.1079C470.983 52.9111 471.513 52.6399 472.074 52.5219C479.983 50.8294 487.896 49.1501 495.813 47.4883C496.454 47.3528 497.125 47.3309 497.783 47.3265C501.647 47.2959 504.23 50.7813 502.923 54.3936C502.684 55.0496 501.881 55.8149 501.223 55.9373C499.933 56.1778 499.796 56.9344 499.788 57.914C499.774 59.1079 499.788 60.3061 499.788 61.6399L499.796 61.6356ZM485.781 63.4242C487.529 63.1618 489.221 62.9519 490.885 62.6108C491.186 62.5496 491.583 61.9592 491.592 61.6093C491.671 57.2405 490.965 56.6152 486.584 57.0612C486.311 57.0875 485.931 57.0087 485.781 57.1574C485.432 57.5073 484.911 57.9927 484.951 58.3732C485.118 59.9912 485.463 61.5918 485.785 63.4242H485.781Z" fill="black"/>
<path d="M35.154 26.8032C41.6143 22.43 48.4676 21.1793 55.8862 23.2303C60.2931 24.4504 63.6447 27.1574 66.144 31.0233C65.8438 30.8965 65.5038 30.8265 65.2432 30.6385C56.84 24.586 44.7672 26.3746 37.9272 33.1399C29.1574 41.8207 29.4312 55.6924 38.6955 64.1064C41.186 66.3673 44.1313 68.1297 46.7234 70.0146C42.9523 69.5117 39.4815 67.6837 36.2889 65.3047C28.8351 59.7595 24.2956 52.277 22.9576 43.2682C20.5775 27.2449 28.6099 14.3309 42.9214 8.92566C50.7683 5.96065 58.8271 6.0175 66.3472 10.3776C70.4141 12.7347 73.1916 16.1676 73.9291 20.9519C74.353 23.6895 73.4124 27.7653 70.7188 28.7449C70.6923 28.5962 70.6084 28.4432 70.6437 28.3207C72.7324 21.5816 68.0472 16.1808 62.4127 14.344C56.6589 12.4679 51.2054 13.6837 46.0036 16.3951C41.6629 18.6604 38.3158 22.0146 35.5338 25.9636C35.3572 26.2128 35.2777 26.5233 35.1496 26.8076L35.154 26.8032Z" fill="black"/>
<path d="M169.973 70.3688C170.882 72.5991 171.836 74.5189 172.459 76.535C173.964 81.4198 171.774 85.7449 166.824 87.2624C164.117 88.0889 161.234 88.5437 158.399 88.7405C151.969 89.1778 145.509 89.5539 139.128 88.2289C137.309 87.8528 135.507 87.2711 133.776 86.5845C126.994 83.8907 123.607 79.0758 124.251 70.6006C124.834 62.9213 131.785 57.8484 139.477 59.1953C139.733 59.2391 139.976 59.3703 140.347 59.5058C140.056 60.4461 139.804 61.3251 139.517 62.1953C138.554 65.1079 138.422 68.086 138.806 71.0991C139.234 74.4315 141.243 76.4475 144.463 77.1341C153.047 78.9708 161.15 78.4417 167.924 72.0219C168.471 71.5015 169.098 71.0685 169.977 70.3688H169.973Z" fill="black"/>
<path d="M219.151 59.2784C218.621 61.6749 218.025 63.7741 217.738 65.9125C217.522 67.5131 217.632 69.1706 217.738 70.7974C217.963 74.1647 219.902 76.3207 223.108 77.051C231.652 78.9927 239.773 78.551 246.639 72.2449C247.28 71.6545 247.973 71.121 248.984 70.2682C249.982 72.9752 251.139 75.398 251.753 77.9475C252.711 81.9271 250.176 86.0948 245.796 87.223C242.047 88.1895 238.117 88.6574 234.24 88.8892C228.42 89.2434 222.547 89.4971 216.828 87.9227C214.824 87.3717 212.85 86.637 210.969 85.758C206.085 83.4752 203.665 79.4738 203.228 74.2347C203.113 72.879 203.166 71.5058 203.206 70.1458C203.325 66.0787 205.299 63.0831 208.818 61.1152C211.975 59.3484 215.38 58.7493 219.151 59.2784Z" fill="black"/>
<path d="M89.9054 53.9956C89.3225 54.8834 88.9825 55.5744 88.488 56.1254C84.3901 60.7216 79.2104 63.6341 73.333 65.3309C65.9454 67.465 58.5003 67.6793 51.2364 64.9286C43.6986 62.0729 38.3202 57.0744 36.5892 48.9402C34.9024 41.016 40.3294 32.7595 48.3661 30.8309C53.9432 29.4927 59.2599 29.9213 63.9892 33.328C68.1533 36.328 70.4671 40.2857 69.3808 45.6123C68.9525 47.7114 66.4311 50.8163 63.786 50.379C64.3557 49.6837 64.9871 49.0889 65.411 48.3717C67.7205 44.4577 65.1947 38.8644 60.3726 37.137C56.1997 35.6414 51.594 36.7609 48.7459 39.9621C45.9286 43.1327 45.4075 48.3193 47.6596 52.2551C50.3753 57.0088 54.6498 59.8251 59.9355 60.914C70.3214 63.0569 79.8418 61.0408 88.2716 54.4986C88.488 54.3324 88.7132 54.1706 88.956 54.0481C89.0797 53.9869 89.2563 54.0219 89.9054 53.9913V53.9956Z" fill="black"/>
<path d="M41.9235 73.2726C46.1008 73.9679 50.3002 74.9082 54.2568 73.465C58.8624 71.7857 63.6094 72.8397 68.2371 71.8951C78.0623 69.8878 86.0195 65.121 92.1133 57.2668C95.2044 53.2784 97.3548 48.8178 98.5957 43.9548C99.8277 39.1225 99.9028 34.2464 98.7326 29.3703C98.6354 28.9723 98.6222 28.5569 98.9313 27.9402C99.258 28.2945 99.6687 28.5962 99.8939 29.0029C103.157 34.9023 104.349 41.1472 102.967 47.7901C99.9425 62.3222 90.4971 71.1647 76.9981 76.2945C69.5575 79.1239 61.8431 79.465 54.058 78.035C50.0353 77.2959 46.1847 75.9883 42.6697 73.8455C42.4048 73.6837 42.1752 73.4606 41.9279 73.2682L41.9235 73.2726Z" fill="black"/>
<path d="M345.553 32.5058C349.859 32.7464 353.912 33.6472 356.703 37.0846C358.288 39.035 359.525 41.3746 360.426 43.723C361.419 46.312 359.838 48.8397 356.897 49.828C353.409 51 350.018 50.8469 347.624 47.1647C344.997 43.1327 342.352 39.1181 339.689 35.1123C338.96 34.0146 339.239 33.3717 340.501 33.1749C342.179 32.9169 343.866 32.7245 345.553 32.5015V32.5058Z" fill="black"/>
<path d="M82.7387 28.3557C86.1697 28.3557 88.9031 31.0889 88.8855 34.5131C88.8678 37.8542 86.1609 40.5175 82.7652 40.535C79.3474 40.5525 76.5698 37.7536 76.6228 34.3338C76.6758 30.9009 79.2767 28.3601 82.7431 28.3557H82.7387Z" fill="black"/>
<path d="M266.237 26.1822C265.27 25.8324 264.073 25.7274 263.38 25.0889C261.348 23.2172 259.511 21.14 257.613 19.1327C257.471 18.984 257.414 18.7478 257.334 18.5467C256.672 16.8936 257.67 15.3061 260.147 14.051C263.278 12.4679 264.881 12.4417 265.808 14.226C267.107 16.7362 268.347 19.2988 269.323 21.9402C270.326 24.6604 269.204 25.9986 266.241 26.1822H266.237Z" fill="black"/>
</g>
<path d="M185.704 170.752H221.48V177.856H185.704V170.752ZM186.792 185.536H214.184V192.448H186.792V185.536ZM199.464 161.6H207.08V189.312H199.464V161.6ZM195.112 191.04C197.459 196.971 201.043 202.048 205.864 206.272C210.685 210.453 216.723 213.419 223.976 215.168C223.421 215.723 222.824 216.384 222.184 217.152C221.544 217.92 220.947 218.709 220.392 219.52C219.88 220.373 219.432 221.141 219.048 221.824C211.368 219.563 205.032 216 200.04 211.136C195.091 206.272 191.144 200.235 188.2 193.024L195.112 191.04ZM213.352 185.536H214.824L216.104 185.28L221.032 187.264C219.752 192 218.003 196.224 215.784 199.936C213.608 203.648 211.005 206.891 207.976 209.664C204.989 212.437 201.64 214.805 197.928 216.768C194.259 218.731 190.312 220.331 186.088 221.568C185.832 220.928 185.469 220.16 185 219.264C184.531 218.411 184.019 217.557 183.464 216.704C182.952 215.893 182.461 215.211 181.992 214.656C185.832 213.76 189.437 212.501 192.808 210.88C196.221 209.259 199.293 207.275 202.024 204.928C204.755 202.581 207.08 199.893 209 196.864C210.963 193.792 212.413 190.421 213.352 186.752V185.536ZM162.728 194.112C164.605 193.728 166.739 193.28 169.128 192.768C171.517 192.213 174.013 191.616 176.616 190.976C179.261 190.293 181.864 189.632 184.424 188.992L185.384 196.032C181.885 197.013 178.301 197.995 174.632 198.976C171.005 199.915 167.699 200.747 164.712 201.472L162.728 194.112ZM163.56 173.824H184.872V180.928H163.56V173.824ZM170.984 161.6H178.536V213.248C178.536 215.083 178.323 216.512 177.896 217.536C177.512 218.603 176.765 219.435 175.656 220.032C174.589 220.587 173.267 220.949 171.688 221.12C170.109 221.291 168.168 221.376 165.864 221.376C165.736 220.395 165.459 219.221 165.032 217.856C164.605 216.533 164.157 215.381 163.688 214.4C164.968 214.443 166.184 214.464 167.336 214.464C168.531 214.464 169.341 214.464 169.768 214.464C170.579 214.464 170.984 214.037 170.984 213.184V161.6ZM245.16 188.48L251.304 189.376C251.133 192.363 250.835 195.307 250.408 198.208C250.024 201.109 249.533 203.84 248.936 206.4C248.381 208.96 247.677 211.221 246.824 213.184C246.44 212.843 245.928 212.437 245.288 211.968C244.691 211.499 244.051 211.051 243.368 210.624C242.728 210.155 242.173 209.813 241.704 209.6C242.472 207.851 243.069 205.845 243.496 203.584C243.965 201.323 244.328 198.891 244.584 196.288C244.883 193.685 245.075 191.083 245.16 188.48ZM244.584 175.232H268.52V182.336H244.584V175.232ZM253.096 162.624H260.264V220.736H253.096V162.624ZM261.48 189.696L267.048 188.672C267.517 190.677 267.944 192.832 268.328 195.136C268.712 197.397 269.032 199.616 269.288 201.792C269.587 203.968 269.8 205.931 269.928 207.68L263.976 208.896C263.933 207.147 263.784 205.184 263.528 203.008C263.272 200.789 262.973 198.528 262.632 196.224C262.291 193.877 261.907 191.701 261.48 189.696ZM270.76 165.056H286.056V171.84H270.76V165.056ZM269.224 183.168H287.08V190.016H269.224V183.168ZM260.712 165.44L265.768 163.328C266.621 164.693 267.475 166.208 268.328 167.872C269.181 169.493 269.779 170.88 270.12 172.032L264.872 174.464C264.488 173.227 263.891 171.776 263.08 170.112C262.312 168.405 261.523 166.848 260.712 165.44ZM274.792 185.152H282.088V213.44C282.088 215.232 281.896 216.683 281.512 217.792C281.171 218.901 280.424 219.755 279.272 220.352C278.163 220.907 276.819 221.269 275.24 221.44C273.661 221.611 271.784 221.696 269.608 221.696C269.565 220.629 269.331 219.392 268.904 217.984C268.52 216.576 268.072 215.317 267.56 214.208C268.883 214.251 270.12 214.293 271.272 214.336C272.467 214.336 273.277 214.336 273.704 214.336C274.088 214.336 274.365 214.272 274.536 214.144C274.707 213.973 274.792 213.696 274.792 213.312V185.152ZM237.288 161.6L244.2 164.16C243.048 166.037 241.725 167.915 240.232 169.792C238.739 171.669 237.139 173.461 235.432 175.168C233.768 176.875 232.104 178.368 230.44 179.648C230.141 179.136 229.736 178.517 229.224 177.792C228.755 177.067 228.264 176.363 227.752 175.68C227.283 174.955 226.856 174.379 226.472 173.952C227.837 172.885 229.203 171.669 230.568 170.304C231.976 168.896 233.256 167.445 234.408 165.952C235.603 164.459 236.563 163.008 237.288 161.6ZM233.768 189.056L239.784 183.04L240.808 183.424V221.76H233.768V189.056ZM238.76 175.168L245.544 177.472C244.349 180.203 242.899 182.955 241.192 185.728C239.485 188.459 237.672 191.04 235.752 193.472C233.832 195.861 231.869 197.973 229.864 199.808C229.651 199.253 229.288 198.528 228.776 197.632C228.307 196.693 227.795 195.776 227.24 194.88C226.685 193.984 226.195 193.259 225.768 192.704C228.285 190.571 230.696 187.947 233 184.832C235.347 181.717 237.267 178.496 238.76 175.168Z" fill="#00A1E9"/>
<path d="M320.104 164.672C319.891 165.824 319.549 167.317 319.08 169.152C318.611 170.987 317.928 173.056 317.032 175.36C316.349 176.939 315.56 178.581 314.664 180.288C313.811 181.952 312.936 183.445 312.04 184.768C312.595 184.512 313.299 184.299 314.152 184.128C315.005 183.915 315.88 183.765 316.776 183.68C317.715 183.552 318.547 183.488 319.272 183.488C321.96 183.488 324.179 184.256 325.928 185.792C327.72 187.328 328.616 189.611 328.616 192.64C328.616 193.493 328.616 194.539 328.616 195.776C328.659 197.013 328.701 198.315 328.744 199.68C328.787 201.003 328.829 202.304 328.872 203.584C328.915 204.864 328.936 206.016 328.936 207.04H321.256C321.341 206.315 321.384 205.461 321.384 204.48C321.427 203.456 321.448 202.389 321.448 201.28C321.491 200.171 321.512 199.104 321.512 198.08C321.555 197.013 321.576 196.053 321.576 195.2C321.576 193.152 321.021 191.744 319.912 190.976C318.845 190.165 317.651 189.76 316.328 189.76C314.536 189.76 312.723 190.208 310.888 191.104C309.096 191.957 307.581 192.981 306.344 194.176C305.405 195.115 304.445 196.16 303.464 197.312C302.525 198.464 301.501 199.765 300.392 201.216L293.544 196.096C296.317 193.536 298.707 191.061 300.712 188.672C302.76 186.283 304.488 183.915 305.896 181.568C307.304 179.221 308.456 176.875 309.352 174.528C309.992 172.821 310.504 171.051 310.888 169.216C311.315 167.339 311.571 165.589 311.656 163.968L320.104 164.672ZM296.04 170.56C297.661 170.816 299.539 171.008 301.672 171.136C303.805 171.264 305.683 171.328 307.304 171.328C310.12 171.328 313.192 171.264 316.52 171.136C319.891 171.008 323.304 170.795 326.76 170.496C330.216 170.155 333.501 169.728 336.616 169.216L336.552 176.64C334.291 176.939 331.837 177.216 329.192 177.472C326.589 177.685 323.923 177.877 321.192 178.048C318.504 178.176 315.923 178.283 313.448 178.368C310.973 178.411 308.776 178.432 306.856 178.432C306.003 178.432 304.936 178.432 303.656 178.432C302.419 178.389 301.139 178.347 299.816 178.304C298.493 178.219 297.235 178.133 296.04 178.048V170.56ZM346.728 188.736C346.045 188.949 345.235 189.227 344.296 189.568C343.4 189.867 342.483 190.187 341.544 190.528C340.648 190.827 339.837 191.125 339.112 191.424C337.064 192.235 334.632 193.216 331.816 194.368C329.043 195.52 326.141 196.864 323.112 198.4C321.192 199.424 319.571 200.427 318.248 201.408C316.925 202.389 315.923 203.392 315.24 204.416C314.557 205.397 314.216 206.485 314.216 207.68C314.216 208.576 314.408 209.323 314.792 209.92C315.176 210.475 315.752 210.923 316.52 211.264C317.288 211.605 318.248 211.84 319.4 211.968C320.552 212.096 321.917 212.16 323.496 212.16C326.227 212.16 329.235 212.011 332.52 211.712C335.805 211.371 338.856 210.923 341.672 210.368L341.416 218.624C340.051 218.795 338.323 218.965 336.232 219.136C334.141 219.349 331.965 219.499 329.704 219.584C327.485 219.669 325.352 219.712 323.304 219.712C319.976 219.712 316.989 219.392 314.344 218.752C311.699 218.112 309.608 217.024 308.072 215.488C306.579 213.909 305.832 211.755 305.832 209.024C305.832 206.805 306.323 204.8 307.304 203.008C308.328 201.216 309.672 199.595 311.336 198.144C313 196.693 314.813 195.392 316.776 194.24C318.781 193.045 320.744 191.957 322.664 190.976C324.627 189.952 326.397 189.077 327.976 188.352C329.555 187.627 331.027 186.987 332.392 186.432C333.8 185.835 335.144 185.237 336.424 184.64C337.661 184.085 338.856 183.552 340.008 183.04C341.16 182.485 342.333 181.909 343.528 181.312L346.728 188.736ZM356.456 198.016H413.608V204.672H356.456V198.016ZM381.032 192.896H388.84V221.632H381.032V192.896ZM378.664 200.96L384.936 203.648C383.016 206.165 380.691 208.555 377.96 210.816C375.272 213.035 372.371 215.019 369.256 216.768C366.184 218.56 363.069 220.032 359.912 221.184C359.528 220.501 359.016 219.755 358.376 218.944C357.779 218.176 357.16 217.408 356.52 216.64C355.923 215.872 355.325 215.232 354.728 214.72C357.843 213.824 360.915 212.672 363.944 211.264C366.973 209.856 369.768 208.277 372.328 206.528C374.931 204.736 377.043 202.88 378.664 200.96ZM391.144 201.152C392.808 202.987 394.92 204.757 397.48 206.464C400.083 208.128 402.92 209.621 405.992 210.944C409.107 212.267 412.221 213.355 415.336 214.208C414.739 214.677 414.12 215.296 413.48 216.064C412.84 216.875 412.221 217.685 411.624 218.496C411.027 219.307 410.536 220.032 410.152 220.672C407.037 219.605 403.923 218.219 400.808 216.512C397.693 214.805 394.749 212.907 391.976 210.816C389.245 208.683 386.856 206.443 384.808 204.096L391.144 201.152ZM379.56 183.616V187.968H390.12V183.616H379.56ZM379.56 173.824V178.112H390.12V173.824H379.56ZM372.456 168H397.544V193.792H372.456V168ZM381.352 161.536L389.928 162.56C389.288 164.267 388.648 165.909 388.008 167.488C387.368 169.024 386.771 170.347 386.216 171.456L379.432 170.24C379.773 168.96 380.136 167.531 380.52 165.952C380.904 164.331 381.181 162.859 381.352 161.536ZM356.008 169.984L361.32 165.568C362.6 166.464 363.901 167.445 365.224 168.512C366.547 169.579 367.763 170.688 368.872 171.84C370.024 172.992 370.941 174.059 371.624 175.04L365.992 179.968C365.395 178.987 364.541 177.92 363.432 176.768C362.365 175.573 361.171 174.379 359.848 173.184C358.568 171.989 357.288 170.923 356.008 169.984ZM395.944 185.28L400.36 180.16C401.939 180.971 403.667 181.888 405.544 182.912C407.421 183.936 409.213 184.981 410.92 186.048C412.669 187.115 414.099 188.117 415.208 189.056L410.408 194.816C409.384 193.877 408.04 192.853 406.376 191.744C404.755 190.592 403.005 189.461 401.128 188.352C399.293 187.2 397.565 186.176 395.944 185.28ZM406.76 164.8L413.352 168.768C411.645 170.603 409.832 172.416 407.912 174.208C405.992 176 404.221 177.536 402.6 178.816L396.84 175.04C397.949 174.187 399.101 173.184 400.296 172.032C401.491 170.837 402.664 169.621 403.816 168.384C404.968 167.104 405.949 165.909 406.76 164.8ZM354.92 188.672C356.883 187.776 359.208 186.603 361.896 185.152C364.627 183.701 367.4 182.229 370.216 180.736L372.264 186.944C370.045 188.309 367.741 189.717 365.352 191.168C362.963 192.576 360.765 193.856 358.76 195.008L354.92 188.672ZM440.744 165.248C440.573 166.571 440.403 168 440.232 169.536C440.104 171.072 439.997 172.48 439.912 173.76C439.869 175.509 439.784 177.643 439.656 180.16C439.571 182.635 439.485 185.237 439.4 187.968C439.357 190.699 439.293 193.387 439.208 196.032C439.165 198.677 439.144 200.981 439.144 202.944C439.144 205.077 439.528 206.784 440.296 208.064C441.107 209.301 442.173 210.197 443.496 210.752C444.819 211.264 446.312 211.52 447.976 211.52C450.621 211.52 453.032 211.179 455.208 210.496C457.384 209.771 459.368 208.811 461.16 207.616C462.952 206.421 464.552 205.035 465.96 203.456C467.411 201.877 468.712 200.213 469.864 198.464L475.688 205.504C474.664 207.04 473.32 208.661 471.656 210.368C469.992 212.075 468.008 213.675 465.704 215.168C463.443 216.661 460.819 217.877 457.832 218.816C454.845 219.755 451.539 220.224 447.912 220.224C444.413 220.224 441.363 219.669 438.76 218.56C436.2 217.493 434.195 215.829 432.744 213.568C431.336 211.264 430.632 208.299 430.632 204.672C430.632 202.923 430.653 200.939 430.696 198.72C430.739 196.459 430.803 194.112 430.888 191.68C430.973 189.248 431.037 186.88 431.08 184.576C431.123 182.229 431.165 180.117 431.208 178.24C431.251 176.363 431.272 174.869 431.272 173.76C431.272 172.224 431.208 170.731 431.08 169.28C430.952 167.787 430.739 166.4 430.44 165.12L440.744 165.248ZM511.016 164.736C510.76 165.888 510.547 166.912 510.376 167.808C510.205 168.704 510.056 169.579 509.928 170.432C509.757 171.328 509.544 172.629 509.288 174.336C509.075 176 508.819 177.899 508.52 180.032C508.264 182.123 507.987 184.32 507.688 186.624C507.432 188.885 507.176 191.104 506.92 193.28C506.664 195.456 506.451 197.44 506.28 199.232C506.152 201.024 506.088 202.453 506.088 203.52C506.088 206.165 506.877 208.192 508.456 209.6C510.077 210.965 512.467 211.648 515.624 211.648C518.611 211.648 521.128 211.243 523.176 210.432C525.224 209.579 526.781 208.448 527.848 207.04C528.915 205.632 529.448 204.053 529.448 202.304C529.448 200.128 528.872 198.016 527.72 195.968C526.611 193.877 524.989 191.851 522.856 189.888L531.88 187.968C534.013 190.656 535.571 193.216 536.552 195.648C537.576 198.037 538.088 200.597 538.088 203.328C538.088 206.528 537.171 209.387 535.336 211.904C533.501 214.421 530.877 216.384 527.464 217.792C524.093 219.2 520.061 219.904 515.368 219.904C512.04 219.904 509.075 219.392 506.472 218.368C503.869 217.344 501.843 215.723 500.392 213.504C498.941 211.285 498.216 208.405 498.216 204.864C498.216 203.541 498.323 201.792 498.536 199.616C498.749 197.397 499.005 194.965 499.304 192.32C499.645 189.632 499.987 186.923 500.328 184.192C500.669 181.419 500.968 178.795 501.224 176.32C501.523 173.845 501.757 171.712 501.928 169.92C502.013 168.427 502.056 167.296 502.056 166.528C502.099 165.717 502.077 164.949 501.992 164.224L511.016 164.736ZM488.168 172.672C490.088 173.269 492.179 173.781 494.44 174.208C496.701 174.592 499.027 174.891 501.416 175.104C503.805 175.275 506.067 175.36 508.2 175.36C510.717 175.36 513.064 175.275 515.24 175.104C517.416 174.933 519.315 174.72 520.936 174.464L520.68 182.08C518.76 182.251 516.84 182.4 514.92 182.528C513 182.656 510.696 182.72 508.008 182.72C505.832 182.72 503.571 182.613 501.224 182.4C498.877 182.144 496.552 181.824 494.248 181.44C491.944 181.013 489.789 180.544 487.784 180.032L488.168 172.672ZM486.824 188.544C489.128 189.312 491.453 189.909 493.8 190.336C496.189 190.763 498.536 191.061 500.84 191.232C503.187 191.36 505.427 191.424 507.56 191.424C509.523 191.424 511.635 191.36 513.896 191.232C516.2 191.104 518.376 190.912 520.424 190.656L520.232 198.272C518.44 198.443 516.605 198.592 514.728 198.72C512.851 198.805 510.909 198.848 508.904 198.848C504.637 198.848 500.541 198.635 496.616 198.208C492.691 197.739 489.277 197.099 486.376 196.288L486.824 188.544ZM586.903 195.072C586.903 193.664 586.54 192.384 585.815 191.232C585.132 190.08 584.087 189.163 582.679 188.48C581.313 187.755 579.607 187.392 577.559 187.392C575.255 187.392 573.015 187.584 570.839 187.968C568.705 188.352 566.785 188.8 565.079 189.312C563.415 189.781 562.028 190.187 560.919 190.528C559.98 190.784 558.935 191.147 557.783 191.616C556.673 192.043 555.649 192.427 554.711 192.768L552.279 183.616C553.388 183.531 554.583 183.381 555.863 183.168C557.143 182.955 558.295 182.741 559.319 182.528C560.897 182.144 562.689 181.739 564.695 181.312C566.743 180.843 568.961 180.437 571.351 180.096C573.74 179.755 576.172 179.584 578.647 179.584C582.06 179.584 585.047 180.224 587.607 181.504C590.209 182.741 592.236 184.533 593.687 186.88C595.137 189.227 595.863 192.064 595.863 195.392C595.863 198.805 595.116 201.899 593.623 204.672C592.129 207.445 590.017 209.877 587.287 211.968C584.556 214.016 581.335 215.723 577.623 217.088C573.911 218.453 569.836 219.435 565.399 220.032L560.791 212.096C564.759 211.627 568.343 210.944 571.543 210.048C574.785 209.152 577.537 208.021 579.799 206.656C582.103 205.248 583.852 203.605 585.047 201.728C586.284 199.808 586.903 197.589 586.903 195.072ZM561.751 164.352C563.585 164.736 565.783 165.099 568.343 165.44C570.945 165.781 573.612 166.08 576.343 166.336C579.116 166.592 581.74 166.805 584.215 166.976C586.732 167.104 588.823 167.189 590.487 167.232L589.207 175.104C587.329 174.976 585.132 174.805 582.615 174.592C580.097 174.379 577.495 174.144 574.807 173.888C572.119 173.589 569.516 173.291 566.999 172.992C564.524 172.651 562.348 172.331 560.471 172.032L561.751 164.352Z" fill="black"/>
<defs>
<clipPath id="clip0_259_3">
<rect width="615" height="108" fill="white"/>
</clipPath>
</defs>
</svg>
